# xmcd
# 
# Track frame offsets:
#     183
#     14418
#     42533
# 
# Disc length: 1018
# 
# Revision: 4
# Processed by: cddbd v1.5.2PL0 Copyright (c) Steve Scherf et al.
# Submitted via: fre:ac v1.0.17
# 
DISCID=2003f803
DTITLE=Kylie Minogue - Shocked (single)
DYEAR=1991
DGENRE=Pop
TTITLE0=Shocked (dna mix - edit)
TTITLE1=Shocked (dna mix)
TTITLE2=Shocked (harding/curnow mix)
EXTD=
EXTT0=
EXTT1=
EXTT2=
PLAYORDER=
